<?xml version="1.0" encoding="UTF-8" standalone="no"?>
<!-- Created with Inkscape (http://www.inkscape.org/) -->

<svg
   width="210mm"
   height="297mm"
   viewBox="0 0 210 297"
   version="1.1"
   id="svg53922"
   inkscape:version="1.2-beta (1b65182ce9, 2022-04-05)"
   sodipodi:docname="dibujo.svg"
   xmlns:inkscape="http://www.inkscape.org/namespaces/inkscape"
   xmlns:sodipodi="http://sodipodi.sourceforge.net/DTD/sodipodi-0.dtd"
   xmlns="http://www.w3.org/2000/svg"
   xmlns:svg="http://www.w3.org/2000/svg">
  <sodipodi:namedview
     id="namedview53924"
     pagecolor="#ffffff"
     bordercolor="#000000"
     borderopacity="0.25"
     inkscape:pageshadow="2"
     inkscape:pageopacity="0.0"
     inkscape:pagecheckerboard="0"
     inkscape:deskcolor="#d1d1d1"
     inkscape:document-units="mm"
     showgrid="false"
     inkscape:zoom="0.914906"
     inkscape:cx="318.61197"
     inkscape:cy="560.71334"
     inkscape:window-width="3440"
     inkscape:window-height="1377"
     inkscape:window-x="-8"
     inkscape:window-y="-8"
     inkscape:window-maximized="1"
     inkscape:current-layer="layer1" />
  <defs
     id="defs53919" />
  <g
     inkscape:label="Capa 1"
     inkscape:groupmode="layer"
     id="layer1">
    <g
       id="g24"
       transform="matrix(0.35277777,0,0,-0.35277777,105.01792,186.25224)">
      <path
         d="m 0,0 245.594,106.346 v 59.745 L -0.002,59.746 Z"
         style="fill:#201a27;fill-opacity:1;fill-rule:nonzero;stroke:none"
         id="path26" />
    </g>
    <g
       id="g28"
       transform="matrix(0.35211225,0,0,-0.35278024,105.1815,186.25244)">
      <path
         d="m 0,0 245.594,106.346 v 59.745 L -0.002,59.746 Z"
         style="fill:none;stroke:#231f20;stroke-width:1;stroke-linecap:butt;stroke-linejoin:miter;stroke-miterlimit:10;stroke-dasharray:none;stroke-opacity:1"
         id="path30" />
    </g>
    <g
       id="g32"
       transform="matrix(0.35277777,0,0,-0.35277777,105.0082,156.95584)">
      <path
         d="m 0,0 184.195,79.587 v 59.746 L -0.002,59.748 Z"
         style="fill:#271f37;fill-opacity:1;fill-rule:nonzero;stroke:none"
         id="path34" />
    </g>
    <g
       id="g36"
       transform="matrix(0.35183269,0,0,-0.3527819,105.17662,156.95613)">
      <path
         d="m 0,0 184.195,79.587 v 59.746 L -0.002,59.748 Z"
         style="fill:none;stroke:#231f20;stroke-width:1;stroke-linecap:butt;stroke-linejoin:miter;stroke-miterlimit:10;stroke-dasharray:none;stroke-opacity:1"
         id="path38" />
    </g>
    <g
       id="g40"
       transform="matrix(0.35277777,0,0,-0.35277777,104.86557,127.75266)">
      <path
         d="m 0,0 122.797,53.358 v 59.746 L 0,59.746 Z"
         style="fill:#504566;fill-opacity:1;fill-rule:nonzero;stroke:none"
         id="path42" />
    </g>
    <g
       id="g44"
       transform="matrix(0.35022757,0,0,-0.35268281,105.17925,127.74109)">
      <path
         d="m 0,0 122.797,53.358 v 59.746 L 0,59.746 Z"
         style="fill:none;stroke:#231f20;stroke-width:1;stroke-linecap:butt;stroke-linejoin:miter;stroke-miterlimit:10;stroke-dasharray:none;stroke-opacity:1"
         id="path46" />
    </g>
    <g
       id="g48"
       transform="matrix(0.35277777,0,0,-0.35277777,105.0169,186.25224)">
      <path
         d="m 0,0 -245.594,106.346 v 59.745 L 0.002,59.746 Z"
         style="fill:#201928;fill-opacity:1;fill-rule:nonzero;stroke:none"
         id="path50" />
    </g>
    <g
       id="g52"
       transform="matrix(0.35206752,0,0,-0.35278038,104.84233,186.25245)">
      <path
         d="m 0,0 -245.594,106.346 v 59.745 L 0.002,59.746 Z"
         style="fill:none;stroke:#231f20;stroke-width:1;stroke-linecap:butt;stroke-linejoin:miter;stroke-miterlimit:10;stroke-dasharray:none;stroke-opacity:1"
         id="path54" />
    </g>
    <g
       id="g56"
       transform="matrix(0.35277777,0,0,-0.35277777,105.00682,156.95584)">
      <path
         d="m 0,0 -184.195,79.587 v 59.746 L 0.002,59.748 Z"
         style="fill:#271f37;fill-opacity:1;fill-rule:nonzero;stroke:none"
         id="path58" />
    </g>
    <g
       id="g60"
       transform="matrix(0.35180261,0,0,-0.35278207,104.83286,156.95614)">
      <path
         d="m 0,0 -184.195,79.587 v 59.746 L 0.002,59.748 Z"
         style="fill:none;stroke:#231f20;stroke-width:1;stroke-linecap:butt;stroke-linejoin:miter;stroke-miterlimit:10;stroke-dasharray:none;stroke-opacity:1"
         id="path62" />
    </g>
    <g
       id="g64"
       transform="matrix(0.35277777,0,0,-0.35277777,105.00753,127.75266)">
      <path
         d="m 0,0 -122.797,53.359 v 59.746 L 0,59.747 Z"
         style="fill:#4f4666;fill-opacity:1;fill-rule:nonzero;stroke:none"
         id="path66" />
    </g>
    <g
       id="g68"
       transform="matrix(0.351436,0,0,-0.35264,104.84246,127.74073)">
      <path
         d="m 0,0 -122.797,53.359 v 59.746 L 0,59.747 Z"
         style="fill:none;stroke:#231f20;stroke-width:1;stroke-linecap:butt;stroke-linejoin:miter;stroke-miterlimit:10;stroke-dasharray:none;stroke-opacity:1"
         id="path70" />
    </g>
    <g
       id="g72"
       transform="matrix(0.34909864,0,-0.00402765,-0.35202108,104.79715,68.86252)">
      <path
         d="M 0,0 -122.699,-53.39 0.098,-106.749 123.496,-53.39 Z"
         style="fill:#63577d;fill-opacity:1;fill-rule:nonzero;stroke:none"
         id="path74" />
    </g>
    <g
       id="g76"
       transform="matrix(0.34919301,-7.0967641e-6,-0.00130116,-0.35303248,104.72645,68.738539)">
      <path
         d="M 0,0 -122.699,-53.39 0.098,-106.749 123.496,-53.39 Z"
         style="fill:none;stroke:#231f20;stroke-width:1;stroke-linecap:butt;stroke-linejoin:miter;stroke-miterlimit:10;stroke-dasharray:none;stroke-opacity:1"
         id="path78" />
    </g>
  </g>
</svg>
